<svg id="f3b2e4ad-6569-4dfd-9238-05131a803ba1" data-name="Layer 1" xmlns="http://www.w3.org/2000/svg" viewBox="0 0 600 600">
  <title>mcdonalds</title>
  <g>
    <path d="M357.94,195.42c24.06,0,43.58,101.45,43.58,226.6h34.86c0-134.77-35.12-244-78.44-244-24.65,0-46.63,32.83-61,84.18-14.38-51.35-36.37-84.18-61-84.18-43.32,0-78.44,109.25-78.44,244h34.87c0-125.15,19.51-226.6,43.58-226.6s43.58,93.65,43.58,209.17h34.86C314.36,289.07,333.87,195.42,357.94,195.42Z" style="fill: #fff;stroke: #fff;stroke-miterlimit: 10"/>
    <path d="M453.83,404.58a8.71,8.71,0,1,1-8.74,8.68A8.64,8.64,0,0,1,453.83,404.58Zm0,16.15a7.44,7.44,0,1,0-7.16-7.48A7.17,7.17,0,0,0,453.83,420.74Zm-3.39-12.54h3.92c2.41,0,3.54,1,3.54,2.91a2.61,2.61,0,0,1-2.66,2.77l2.89,4.5h-1.69L453.7,414H452v4.38h-1.58V408.2Zm1.58,4.52h1.65c1.39,0,2.66-.07,2.66-1.68,0-1.36-1.15-1.56-2.23-1.56H452v3.24Z" style="fill: #fff;stroke: #fff;stroke-miterlimit: 10"/>
  </g>
</svg>
