<svg id="89a25e22-d528-44dc-b8c3-7a335efdcd13" data-name="Layer 1" xmlns="http://www.w3.org/2000/svg" viewBox="0 0 75 75">
  <title>stork_back</title>
  <circle cx="37.5" cy="37.5" r="37.02" style="fill: #fff;stroke: #000;stroke-miterlimit: 10"/>
  <path d="M8.57,46.56l1.4-.05,10.76-.61,5.73,0.67,5,0.14,5,2.83,6.35,0.17,5.43,0.44L51.6,48.8l3.69-.39,1.25,0.39,1-1.56,2.15,0.33L60.16,46H50.41l-2-.8L48.26,43l-3.16-.67,3.19,0.35,0.22-.78V40.5l-3.79-1.56,3.87,1.3,0.82-1.1V38l-3.87-2.17,4,1.93,2-1.29v-2L48,32.15l3.67,2,3.73-1.11V30.35l-5-1.13,5.09,0.88,2.81-2.21-2.5-2.37-4.3.38,4.32-.64,1.83-2.54L55,21.06l-4.58,1.68,4.45-2.2,0.82-3.06-2.84-.82L49.4,19.13l3.15-3,0.51-4-0.35.36L39.39,27,37.22,42.28H35.67l1.42-.21,0.09-.64L38.33,31h0l0.55-4.12,2.28-2.95L39.61,24,38.2,25.53l1.17-1.66-0.57-2.19-2.18.7-0.95,1.85,0.64-2L35.2,19.75,31.09,33.61l3.2,8.54L30,43.67,24.72,42.5,23,42.2l-1.6.42-1.88,1.11ZM21.73,43.5l0.74-.32,0.75,0.2-0.81.29Z"/>
</svg>
